<svg width="24" height="24" viewBox="0 0 24 24" fill="none" xmlns="http://www.w3.org/2000/svg">
<g opacity="0.7">
<path d="M11.2744 1.64084C6.96637 2.43843 3.95633 6.41691 4.21576 10.7918C4.22048 10.8725 4.23033 10.9485 4.24096 11.0253C4.08309 11.8099 4.3811 12.7374 5.31726 13.1157C6.81165 13.7208 8.51666 14.6443 9.08119 16.2607C9.68509 17.9917 8.37651 19.8369 7.32107 21.0746C5.92746 22.7084 8.28597 25.0905 9.69099 23.4449C11.5928 21.214 12.9435 18.7055 12.4011 15.708C12.3857 15.6258 12.3621 15.5474 12.3436 15.4671C12.4727 15.2836 12.5668 15.0652 12.5955 14.801C12.9431 11.5622 13.8549 8.42071 14.1702 5.17722C14.4265 4.62608 14.5056 3.98793 14.3517 3.41947C13.9761 2.01601 12.6211 1.39165 11.2744 1.64084ZM10.2886 12.248C9.95082 11.9528 9.59021 11.6796 9.21307 11.428C9.24378 11.2418 9.25519 11.0422 9.24338 10.8269C9.22842 10.5781 9.23984 10.3281 9.2548 10.0804C9.2611 9.99305 9.26897 9.90723 9.27763 9.82141C9.28157 9.79818 9.2859 9.77417 9.2922 9.74189C9.35204 9.40608 9.44416 9.07736 9.54612 8.75258C9.58982 8.63566 9.61305 8.5711 9.61698 8.55259C9.69217 8.39434 9.77485 8.23962 9.86027 8.08648C10.139 7.58573 9.98389 7.82823 10.398 7.40582C10.6134 7.18615 10.9185 7.00545 11.2783 6.85822C11.0035 8.66322 10.6079 10.4501 10.2886 12.248Z" fill="white"/>
<path d="M17.1747 5.24926C18.6242 5.24926 19.7993 4.07417 19.7993 2.62463C19.7993 1.17509 18.6242 0 17.1747 0C15.7251 0 14.55 1.17509 14.55 2.62463C14.55 4.07417 15.7251 5.24926 17.1747 5.24926Z" fill="white"/>
</g>
</svg>
