<svg width="34" height="34" viewBox="0 0 34 34" fill="none" xmlns="http://www.w3.org/2000/svg">
<g clip-path="url(#clip0)">
<path d="M16.7578 16.3779C19.0079 16.3779 20.9562 15.5709 22.5482 13.9787C24.1401 12.3868 24.9471 10.439 24.9471 8.18869C24.9471 5.93919 24.1401 3.9911 22.5479 2.39866C20.9557 0.806988 19.0076 0 16.7578 0C14.5076 0 12.5597 0.806988 10.9678 2.39892C9.37585 3.99084 8.5686 5.93893 8.5686 8.18869C8.5686 10.439 9.37585 12.3871 10.968 13.979C12.5602 15.5706 14.5083 16.3779 16.7578 16.3779Z" fill="white"/>
<path d="M31.0867 26.1441C31.0408 25.4816 30.9479 24.759 30.8112 23.9958C30.6732 23.2269 30.4955 22.5001 30.2828 21.8358C30.0631 21.1492 29.7643 20.4711 29.3949 19.8213C29.0115 19.1469 28.5612 18.5596 28.0559 18.0763C27.5275 17.5708 26.8805 17.1643 26.1324 16.8678C25.3869 16.5729 24.5607 16.4234 23.6769 16.4234C23.3299 16.4234 22.9942 16.5659 22.346 16.9879C21.947 17.2481 21.4803 17.549 20.9595 17.8818C20.5141 18.1656 19.9107 18.4314 19.1655 18.6722C18.4384 18.9074 17.7001 19.0268 16.9715 19.0268C16.2428 19.0268 15.5048 18.9074 14.7769 18.6722C14.0325 18.4317 13.4291 18.1658 12.9842 17.882C12.4683 17.5523 12.0014 17.2514 11.5965 16.9876C10.949 16.5656 10.6131 16.4232 10.266 16.4232C9.38196 16.4232 8.55603 16.5729 7.81078 16.8681C7.06319 17.164 6.41599 17.5705 5.88707 18.0766C5.38202 18.5601 4.93144 19.1471 4.54857 19.8213C4.17944 20.4711 3.88062 21.1489 3.66064 21.8361C3.4482 22.5004 3.27051 23.2269 3.13251 23.9958C2.9958 24.7579 2.90294 25.4809 2.85703 26.1449C2.81189 26.7955 2.78906 27.4707 2.78906 28.1527C2.78906 29.9275 3.35326 31.3643 4.46582 32.4239C5.56464 33.4696 7.01857 34 8.78664 34H25.1579C26.9259 34 28.3793 33.4698 29.4784 32.4239C30.5912 31.3651 31.1554 29.928 31.1554 28.1524C31.1552 27.4673 31.1321 26.7916 31.0867 26.1441Z" fill="white"/>
</g>
<defs>
<clipPath id="clip0">
<rect width="34" height="34" fill="white"/>
</clipPath>
</defs>
</svg>
