<svg width="34" height="34" viewBox="0 0 34 34" fill="none" xmlns="http://www.w3.org/2000/svg">
<g clip-path="url(#clip0)">
<path d="M29.9412 3.54353C29.6514 3.2538 29.2584 3.09103 28.8484 3.09103C28.8483 3.09103 28.8481 3.09103 28.848 3.09103L27.303 3.09157V4.63704V6.1825V27.8183V29.3638V30.9092H28.8484C29.702 30.9092 30.3939 30.2173 30.3939 29.3638V4.6365C30.3939 4.22651 30.2311 3.83339 29.9412 3.54353Z" fill="white"/>
<path d="M23.6599 0.36165C23.3098 0.0680018 22.8479 -0.0558456 22.398 0.0238418L4.88281 3.11657C4.14431 3.24693 3.60596 3.88861 3.60596 4.63847V29.3639C3.60596 30.1138 4.14438 30.7556 4.88288 30.8858L22.398 33.9767C22.4875 33.9924 22.5772 34.0002 22.6665 34.0002C23.027 34.0002 23.3795 33.874 23.6599 33.6387C24.01 33.345 24.212 32.9117 24.212 32.4548V32.1345V30.9093V29.3639V27.8184V6.18341V4.63794V3.09247V1.54567C24.212 1.08886 24.01 0.65543 23.6599 0.36165ZM17.5778 19.1236C17.2905 19.4112 16.8916 19.5759 16.4848 19.5759C16.0778 19.5759 15.6801 19.4111 15.3916 19.1235C15.1041 18.8352 14.9393 18.4375 14.9393 18.0305C14.9393 17.6235 15.1041 17.2257 15.3916 16.9374C15.6801 16.6499 16.0778 16.485 16.4848 16.485C16.8916 16.485 17.2905 16.6498 17.5778 16.9374C17.8653 17.2258 18.0302 17.6235 18.0302 18.0305C18.0302 18.4376 17.8652 18.8353 17.5778 19.1236Z" fill="white"/>
</g>
<defs>
<clipPath id="clip0">
<rect width="34" height="34" fill="white"/>
</clipPath>
</defs>
</svg>
