<svg width="34" height="34" viewBox="0 0 34 34" fill="none" xmlns="http://www.w3.org/2000/svg">
<path d="M30.96 6.91748L27.0835 3.04086C26.8439 2.80132 26.4719 2.75624 26.182 2.93165L24.1605 4.15521C23.1779 3.60631 22.1258 3.16693 21.0207 2.85353L20.4568 0.560153C20.3759 0.231229 20.0809 0 19.7421 0H14.2598C13.9211 0 13.6261 0.231229 13.5452 0.56019L12.9812 2.85357C11.8762 3.16696 10.8241 3.60635 9.84146 4.15524L7.81994 2.93169C7.53013 2.75628 7.15801 2.80135 6.91846 3.0409L3.04188 6.91748C2.80233 7.15703 2.75726 7.52912 2.93266 7.81892L4.15622 9.84045C3.60733 10.8231 3.16798 11.8751 2.85455 12.9802L0.561166 13.5442C0.232206 13.6251 0.000976562 13.9201 0.000976562 14.2588V19.7411C0.000976562 20.0799 0.232206 20.3749 0.561166 20.4558L2.85455 21.0197C3.16794 22.1248 3.60733 23.1769 4.15622 24.1595L2.93266 26.181C2.75726 26.4708 2.80233 26.8429 3.04188 27.0824L6.91842 30.9591C7.15797 31.1986 7.53006 31.2437 7.8199 31.0683L9.84143 29.8448C10.824 30.3937 11.8761 30.833 12.9812 31.1464L13.5451 33.4398C13.626 33.7687 13.921 34 14.2598 34H19.7421C20.0808 34 20.3758 33.7688 20.4567 33.4398L21.0206 31.1464C22.1257 30.833 23.1778 30.3937 24.1604 29.8448L26.1819 31.0683C26.4718 31.2437 26.8439 31.1986 27.0834 30.9591L30.96 27.0825C31.1996 26.8429 31.2446 26.4708 31.0693 26.181L29.8457 24.1595C30.3946 23.1769 30.8339 22.1248 31.1474 21.0197L33.4408 20.4558C33.7697 20.375 34.0009 20.08 34.0009 19.7412V14.2589C34.0009 13.9202 33.7697 13.6252 33.4407 13.5443L31.1473 12.9803C30.8339 11.8753 30.3946 10.8232 29.8457 9.84056L31.0692 7.81904C31.2447 7.52912 31.1996 7.15699 30.96 6.91748ZM17.001 24.6714C12.7642 24.6714 9.32962 21.2367 9.32962 17C9.32962 12.7632 12.7642 9.32861 17.001 9.32861C21.2377 9.32861 24.6723 12.7632 24.6723 17C24.6723 21.2367 21.2377 24.6714 17.001 24.6714Z" fill="white"/>
</svg>
