<svg width="18" height="18" viewBox="0 0 18 18" fill="none" xmlns="http://www.w3.org/2000/svg">
<g opacity="0.7">
<path d="M9 0C4.03748 0 0 4.03748 0 9C0 13.9625 4.03748 18 9 18C13.9625 18 18 13.9625 18 9C18 4.03748 13.9625 0 9 0ZM9 15.75C5.27818 15.75 2.25 12.7218 2.25 9C2.25 7.57948 2.68066 6.23658 3.49952 5.0907L12.9093 14.5005C11.7634 15.3193 10.4205 15.75 9 15.75ZM14.5005 12.9093L5.0907 3.49952C6.23658 2.68066 7.57948 2.25 9 2.25C12.7218 2.25 15.75 5.27818 15.75 9C15.75 10.4205 15.3193 11.7634 14.5005 12.9093Z" fill="white"/>
</g>
</svg>
