<svg width="24" height="24" viewBox="0 0 24 24" fill="none" xmlns="http://www.w3.org/2000/svg">
<g clip-path="url(#clip0)">
<path d="M7.13605 4.46986C8.37037 4.46986 9.37098 3.46925 9.37098 2.23493C9.37098 1.00061 8.37037 0 7.13605 0C5.90174 0 4.90112 1.00061 4.90112 2.23493C4.90112 3.46925 5.90174 4.46986 7.13605 4.46986Z" fill="white"/>
<path d="M21.185 21.4224C18.5216 17.4473 15.4761 12.2694 14.9642 11.3954C14.9179 11.2368 14.8567 11.0759 14.7723 10.9141C14.1639 9.72844 13.5278 8.55626 12.8786 7.39196C13.5667 7.44575 14.2567 7.49907 14.9443 7.55239C15.4173 8.48439 15.8879 9.41685 16.3599 10.3484C17.1199 11.8493 19.3692 10.5287 18.6111 9.03199C18.0027 7.82967 17.2817 5.1255 15.7112 5.00355C14.0401 4.87372 12.3695 4.74389 10.6989 4.61453C10.6581 4.61128 10.6233 4.61685 10.5843 4.61685C9.32128 4.27882 7.84076 5.17001 7.57275 6.45765C6.71865 8.30726 5.49222 9.75162 3.43442 10.3544C1.8236 10.8255 2.50984 13.3419 4.12762 12.8689C6.16178 12.2736 7.62283 11.1079 8.73055 9.57357C9.4015 10.7699 10.0567 11.9736 10.6845 13.194C9.30412 14.1459 8.0981 15.2972 7.04137 16.6257C6.74647 16.9961 6.69593 17.3773 6.79516 17.7125C6.79145 17.8377 6.79933 17.9675 6.83504 18.1085C7.24168 19.7184 7.64786 21.3255 8.05497 22.9335C8.48666 24.6473 11.1996 24.1604 10.7642 22.4355C10.3771 20.9031 9.98944 19.3706 9.60227 17.8372C10.5732 16.6924 11.718 15.6964 13.0261 14.9527C13.334 14.7774 13.5278 14.5359 13.6353 14.2697C15.4247 17.0119 17.2145 20.8057 19.0029 23.1051C20.0944 24.5082 22.2779 22.8283 21.185 21.4224Z" fill="white"/>
</g>
<defs>
<clipPath id="clip0">
<rect width="24" height="24" fill="white"/>
</clipPath>
</defs>
</svg>
