<svg width="26" height="26" viewBox="0 0 26 26" fill="none" xmlns="http://www.w3.org/2000/svg">
<path d="M22.3821 1.78537C21.0716 0.477225 18.9495 0.477225 17.6391 1.78537L16.4518 2.97915L3.81335 15.6109L3.78649 15.6379C3.77998 15.6444 3.77998 15.6514 3.77306 15.6514C3.75963 15.6715 3.73948 15.6915 3.72626 15.7116C3.72626 15.7183 3.71934 15.7183 3.71934 15.725C3.70591 15.7452 3.6994 15.7586 3.68576 15.7787C3.67926 15.7855 3.67926 15.792 3.67254 15.7989C3.66583 15.819 3.65911 15.8325 3.65219 15.8526C3.65219 15.8591 3.64568 15.8591 3.64568 15.866L0.841593 24.2982C0.759336 24.5383 0.821868 24.8042 1.00254 24.9823C1.12949 25.1076 1.30072 25.1777 1.47888 25.1771C1.55169 25.1758 1.62388 25.1645 1.69354 25.1435L10.1192 22.3327C10.1257 22.3327 10.1257 22.3327 10.1327 22.3262C10.1539 22.3199 10.1742 22.3109 10.1929 22.2991C10.1981 22.2985 10.2028 22.2962 10.2065 22.2926C10.2265 22.2792 10.2533 22.2655 10.2735 22.2521C10.2934 22.2389 10.3138 22.2187 10.3339 22.2053C10.3406 22.1984 10.3471 22.1984 10.3471 22.1919C10.3541 22.1852 10.3675 22.1787 10.3742 22.165L24.1999 8.33929C25.5081 7.02884 25.5081 4.90673 24.1999 3.59649L22.3821 1.78537ZM9.90458 20.7561L5.23564 16.0874L16.9214 4.40165L21.5903 9.07038L9.90458 20.7561ZM4.578 17.3284L8.65687 21.4071L2.53206 23.4463L4.578 17.3284ZM23.2542 7.40005L22.543 8.11791L17.8739 3.44877L18.5919 2.73111C19.3774 1.94631 20.6505 1.94631 21.4361 2.73111L23.2607 4.55567C24.0402 5.34467 24.0373 6.61483 23.2542 7.40005Z" fill="white"/>
</svg>
