<svg width="28" height="28" viewBox="0 0 28 28" fill="none" xmlns="http://www.w3.org/2000/svg">
<g opacity="0.7" clip-path="url(#clip0)">
<path d="M27.9759 13.851C27.7537 12.4742 27.271 11.0856 26.5504 9.88803C26.2695 10.873 25.5063 11.6563 24.5319 11.9609C24.6752 12.2682 24.7997 12.5847 24.9084 12.9068C24.4284 12.9178 23.945 12.9161 23.4667 12.8976C22.7058 11.8452 21.1137 11.274 19.815 12.2844C19.4915 11.5861 19.2486 10.8712 19.1184 10.1208C19.6953 10.1554 20.2717 10.1997 20.8442 10.2782C20.6776 9.90381 20.5851 9.49046 20.5851 9.05476C20.5851 8.49982 20.7359 7.9804 20.9976 7.53198C19.8811 7.3996 18.7524 7.36059 17.6325 7.26898C16.865 7.20586 16.2767 7.94445 16.2548 8.6471C16.1886 10.5907 16.751 12.4014 17.6307 14.0952C16.7484 14.8044 15.9274 15.4422 15.0244 16.1751C13.8746 15.0258 12.5438 14.0356 11.2161 13.1387C10.524 12.6715 9.71527 12.9476 9.12746 13.4087C7.3259 14.8219 5.52347 16.2369 3.72191 17.6514C3.44882 17.8662 3.27831 18.1059 3.19196 18.3527C2.68349 18.3527 2.17546 18.3527 1.66743 18.3527C-0.55581 18.3527 -0.55581 21.7985 1.66743 21.7985C6.03194 21.7985 10.3964 21.7985 14.761 21.7985C15.8024 21.7985 16.4336 21.2729 16.7799 20.9744C19.1829 18.895 20.7228 17.85 23.1266 15.7701C23.1831 15.7218 23.2327 15.6723 23.2809 15.6232C24.4043 15.6745 25.5357 15.6464 26.649 15.5943C27.6108 15.5522 28.1205 14.7549 27.9759 13.851ZM8.36607 18.3527C9.04418 17.8202 9.72316 17.2885 10.4004 16.7572C11.0833 17.242 11.7619 17.7693 12.3729 18.3527C11.0377 18.3527 9.70168 18.3527 8.36607 18.3527Z" fill="white"/>
<path d="M23.7 11.5642C25.1789 11.5642 26.3808 10.3609 26.3808 8.88244C26.3808 7.40438 25.1776 6.20158 23.7 6.20158C22.2223 6.20158 21.0195 7.40481 21.0195 8.88244C21.0191 10.3609 22.2223 11.5642 23.7 11.5642Z" fill="white"/>
</g>
<defs>
<clipPath id="clip0">
<rect width="28" height="28" fill="white"/>
</clipPath>
</defs>
</svg>
