<svg width="24" height="24" viewBox="0 0 24 24" fill="none" xmlns="http://www.w3.org/2000/svg">
<g opacity="0.7" clip-path="url(#clip0)">
<path d="M18.7227 15.3421C18.2652 14.7717 17.5694 14.7068 16.9997 15.1632C16.3266 15.7023 15.3417 16.395 14.53 16.8461C14.2639 15.9582 14.1488 14.7721 13.9343 13.8136L13.9524 8.33171C13.9524 8.33171 16.9284 7.93872 17.7872 7.80848C18.7023 7.72316 18.8424 6.9183 18.6476 6.35317C18.6004 6.21575 17.4048 2.79322 17.1964 2.13182C16.9918 1.48287 16.4406 1.09743 15.7324 1.29638C15.0763 1.48061 14.8789 2.1137 15.0789 2.7634C15.3579 3.67207 16.1009 5.86806 16.1009 5.86806L13.4938 6.2199L9.27846 5.3135C8.20519 4.17416 7.51434 2.90383 7.26367 1.0661C7.17156 0.391483 6.74573 -0.0807854 5.9756 0.0113277C5.30023 0.0921154 4.90573 0.724449 4.99822 1.39869C5.37611 4.17227 6.62492 6.51852 8.53401 8.07878V13.5055C7.22366 16.856 7.20818 20.3136 9.13991 23.3828C9.39134 23.7814 9.82019 24 10.2585 24C10.4993 24 10.7425 23.9332 10.961 23.7969C11.5775 23.4077 11.7633 22.5934 11.3748 21.9758C10.3045 20.2762 9.80849 18.2135 10.3438 15.8129C10.4299 15.4267 10.7795 15.1556 11.1751 15.17H11.1762C11.5488 15.1832 11.8648 15.4452 11.9475 15.8084C12.1827 16.8356 12.2989 17.8364 12.4767 18.4611C12.8252 19.6828 14.0434 19.8991 14.8188 19.4914C16.3953 18.6627 17.3799 18.0681 18.5158 17.1976C19.0953 16.754 19.1784 15.9103 18.7227 15.3421Z" fill="white"/>
<path d="M11.7639 5.16361C12.882 5.16361 13.7885 4.25717 13.7885 3.13901C13.7885 2.02086 12.882 1.11441 11.7639 1.11441C10.6457 1.11441 9.73926 2.02086 9.73926 3.13901C9.73926 4.25717 10.6457 5.16361 11.7639 5.16361Z" fill="white"/>
</g>
<defs>
<clipPath id="clip0">
<rect width="24" height="24" fill="white"/>
</clipPath>
</defs>
</svg>
