<svg width="27" height="27" viewBox="0 0 27 27" fill="none" xmlns="http://www.w3.org/2000/svg">
<g clip-path="url(#clip0)">
<path d="M13.5001 7.04596C9.94134 7.04596 7.0459 9.94141 7.0459 13.5002C7.0459 17.0589 9.94134 19.9543 13.5001 19.9543C17.0588 19.9543 19.9543 17.0589 19.9543 13.5002C19.9543 9.94141 17.0588 7.04596 13.5001 7.04596ZM13.5001 18.3408C10.831 18.3408 8.65945 16.1692 8.65945 13.5002C8.65945 10.8311 10.831 8.65951 13.5001 8.65951C16.1692 8.65951 18.3407 10.8311 18.3407 13.5002C18.3407 16.1692 16.1692 18.3408 13.5001 18.3408Z" fill="white"/>
<path d="M26.3647 10.4258L24.2895 9.97462C24.1091 9.42215 23.8856 8.88327 23.6217 8.36417L24.7705 6.57717C24.9757 6.25788 24.9306 5.83868 24.6624 5.57048L21.4295 2.33762C21.1613 2.06941 20.7421 2.0243 20.4228 2.22947L18.6358 3.3783C18.1167 3.11442 17.5779 2.89091 17.0254 2.71046L16.5742 0.635284C16.4937 0.264496 16.1654 0 15.7859 0H11.2141C10.8346 0 10.5063 0.264496 10.4258 0.635284L9.97462 2.71046C9.42215 2.89091 8.88327 3.11442 8.36417 3.3783L6.57717 2.22947C6.25788 2.0243 5.83868 2.06941 5.57048 2.33762L2.33762 5.57048C2.06941 5.83868 2.0243 6.25788 2.22947 6.57717L3.3783 8.36417C3.11442 8.88327 2.89091 9.42215 2.71046 9.97462L0.635284 10.4258C0.264496 10.5065 0 10.8346 0 11.2141V15.7859C0 16.1654 0.264496 16.4935 0.635284 16.5742L2.71046 17.0254C2.89091 17.5779 3.11442 18.1167 3.3783 18.6358L2.22947 20.4228C2.0243 20.7421 2.06941 21.1613 2.33762 21.4295L5.57048 24.6624C5.83868 24.9306 6.25788 24.9757 6.57717 24.7705L8.36417 23.6217C8.88327 23.8856 9.42215 24.1091 9.97462 24.2895L10.4258 26.3647C10.5063 26.7355 10.8346 27 11.2141 27H15.7859C16.1654 27 16.4937 26.7355 16.5742 26.3647L17.0254 24.2895C17.5779 24.1091 18.1167 23.8856 18.6358 23.6217L20.4228 24.7705C20.7421 24.9757 21.1613 24.9308 21.4295 24.6624L24.6624 21.4295C24.9306 21.1613 24.9757 20.7421 24.7705 20.4228L23.6217 18.6358C23.8856 18.1167 24.1091 17.5779 24.2895 17.0254L26.3647 16.5742C26.7355 16.4935 27 16.1654 27 15.7859V11.2141C27 10.8346 26.7355 10.5065 26.3647 10.4258ZM25.3865 15.1356L23.4837 15.5492C23.1914 15.6129 22.9582 15.8329 22.8779 16.1209C22.6688 16.8709 22.368 17.5962 21.9841 18.2766C21.837 18.5372 21.846 18.8577 22.0079 19.1094L23.0616 20.7483L20.7485 23.0616L19.1094 22.0079C18.8577 21.846 18.5372 21.837 18.2768 21.9841C17.5962 22.368 16.8709 22.6688 16.1209 22.8779C15.8329 22.9582 15.6129 23.1914 15.5492 23.4837L15.1356 25.3865H11.8644L11.4508 23.4837C11.3871 23.1914 11.1671 22.9582 10.8791 22.8779C10.1291 22.6688 9.40382 22.368 8.72342 21.9841C8.46284 21.837 8.14231 21.8462 7.89059 22.0079L6.2517 23.0616L3.9386 20.7483L4.99205 19.1094C5.15396 18.8577 5.16323 18.5372 5.01615 18.2766C4.63218 17.5962 4.33143 16.8709 4.12214 16.1209C4.0418 15.8329 3.80882 15.6129 3.51652 15.5492L1.61355 15.1356V11.8644L3.51631 11.4508C3.80862 11.3871 4.0418 11.1671 4.12214 10.8791C4.33122 10.1291 4.63197 9.40382 5.01595 8.72342C5.16302 8.46284 5.15396 8.14231 4.99205 7.89059L3.93839 6.2517L6.2515 3.93839L7.89059 4.99205C8.14231 5.15396 8.46284 5.16302 8.72321 5.01595C9.40382 4.63197 10.1291 4.33122 10.8791 4.12214C11.1671 4.0418 11.3871 3.80862 11.4508 3.51631L11.8644 1.61355H15.1356L15.5492 3.51631C15.6129 3.80862 15.8329 4.0418 16.1209 4.12214C16.8709 4.33122 17.5962 4.63197 18.2766 5.01595C18.5372 5.16302 18.8577 5.15376 19.1094 4.99205L20.7483 3.93839L23.0614 6.2517L22.0079 7.89059C21.846 8.14231 21.8368 8.46284 21.9838 8.72342C22.368 9.40382 22.6686 10.1291 22.8779 10.8791C22.9582 11.1671 23.1912 11.3871 23.4835 11.4508L25.3865 11.8644V15.1356Z" fill="white"/>
</g>
<defs>
<clipPath id="clip0">
<rect width="27" height="27" fill="white"/>
</clipPath>
</defs>
</svg>
