<svg width="24" height="24" viewBox="0 0 24 24" fill="none" xmlns="http://www.w3.org/2000/svg">
<g opacity="0.7">
<path d="M17.4298 15.8349C16.6633 15.1059 14.7361 14.8005 12.9076 14.6823C12.9068 14.6784 12.9068 14.6749 12.9053 14.6726C12.3499 12.6011 12.197 10.4402 12.0058 8.28174L15.877 10.3513C16.0424 10.4394 16.2191 10.4808 16.3938 10.4808C16.7858 10.4808 17.1657 10.2702 17.3631 9.9008C17.5901 9.47565 17.5046 8.97094 17.1938 8.63668L17.3447 6.04095C17.5425 6.00702 17.6942 5.83501 17.6942 5.62712C17.6942 5.41572 17.5378 5.24293 17.3346 5.2129C17.2733 5.03309 17.1045 4.90359 16.904 4.90359H15.5029L14.953 3.23929H12.986C13.1916 2.91322 13.3136 2.52747 13.3136 2.11285C13.3136 0.945849 12.3678 0 11.2016 0C10.035 0 9.08912 0.945849 9.08912 2.11246C9.08912 3.27907 10.035 4.22492 11.2016 4.22492C11.8202 4.22492 12.3748 3.95736 12.761 3.53377H14.7408L15.1933 4.9032H15.157C14.9585 4.9032 14.7911 5.02958 14.7268 5.20666H14.6983C14.4662 5.20666 14.2782 5.39466 14.2782 5.62673C14.2782 5.83813 14.4335 6.01131 14.6367 6.04095L14.7424 7.2532L11.3787 5.45511C11.2363 5.37905 11.0853 5.34005 10.934 5.32991C10.7952 5.24839 10.6415 5.18598 10.4749 5.14464C10.3084 5.06663 10.1216 5.02529 9.92575 5.04128C7.25748 5.25931 6.67554 7.03946 6.25001 8.33947C6.0897 8.83014 5.93837 9.2935 5.69888 9.70422C5.3927 10.2284 5.57017 10.9005 6.09399 11.2063C6.26795 11.3085 6.45829 11.356 6.64668 11.356C7.02424 11.356 7.39244 11.1614 7.59604 10.8112C7.95371 10.198 8.1577 9.57355 8.3379 9.02282C8.33829 9.02087 8.33907 9.01931 8.33985 9.01697C8.53331 11.2445 8.73028 13.5212 9.29896 15.6395C9.57004 16.6473 10.4016 17.0366 11.2059 16.9641C11.3248 17.007 11.45 17.0374 11.5834 17.0397C13.3647 17.0869 15.272 17.3428 15.7654 17.5983C15.9694 17.9598 16.2202 19.5613 15.799 22.6278C15.7085 23.2882 16.1707 23.8978 16.831 23.9883C16.8868 23.9965 16.9426 24 16.9972 24C17.5908 24 18.1096 23.5612 18.1927 22.9559C18.7079 19.2025 18.452 16.8061 17.4298 15.8349Z" fill="white"/>
<path d="M7.48595 12.1794H5.63754L5.63403 23.2156H14.5921L15.1405 18.1634L8.80351 17.6154L7.48595 12.1794Z" fill="white"/>
</g>
</svg>
