<svg width="24" height="24" viewBox="0 0 24 24" fill="none" xmlns="http://www.w3.org/2000/svg">
<g opacity="0.7">
<path d="M11.9611 4.04027C13.0767 4.04027 13.9812 3.13582 13.9812 2.02013C13.9812 0.904444 13.0767 0 11.9611 0C10.8454 0 9.94092 0.904444 9.94092 2.02013C9.94092 3.13582 10.8454 4.04027 11.9611 4.04027Z" fill="white"/>
<path d="M12.6648 5.00348C12.1615 4.90128 11.6142 4.90577 11.1198 5.0223C7.7613 5.41584 6.67078 9.30326 6.9787 12.2673C7.11227 13.5488 9.13241 13.5623 8.99749 12.2673C8.88544 11.1871 8.9334 9.55696 9.50757 8.3983C9.50757 9.80662 9.50757 11.2149 9.50757 12.6228C9.50757 12.6725 9.5125 12.7192 9.51474 12.7671C9.51339 12.79 9.50801 12.8092 9.50801 12.8326C9.50801 16.1848 9.50219 19.5357 9.36369 22.8853C9.30228 24.3743 11.6111 24.3684 11.672 22.8853C11.7805 20.26 11.8078 17.6335 11.8141 15.0064C11.9235 15.0136 12.0328 15.0136 12.1422 15.0073C12.1489 17.6343 12.1754 20.2609 12.283 22.8853C12.3444 24.3684 14.6531 24.3743 14.5913 22.8853C14.4528 19.5357 14.4479 16.1848 14.4479 12.8326C14.4479 12.7286 14.434 12.634 14.4129 12.543C14.4098 11.0876 14.3542 9.63091 14.3712 8.17644C15.0588 9.34047 15.1215 11.1159 15.0023 12.2665C14.8669 13.5605 16.8875 13.5475 17.0211 12.2665C17.3362 9.24096 16.1932 5.25269 12.6648 5.00348Z" fill="white"/>
</g>
</svg>
