<svg width="17" height="17" viewBox="0 0 17 17" fill="none" xmlns="http://www.w3.org/2000/svg">
<path d="M8.5 0C3.81316 0 0 3.81316 0 8.5C0 13.1868 3.81316 17 8.5 17C13.1868 17 17 13.1868 17 8.5C17 3.81316 13.1868 0 8.5 0ZM9.0529 13.5433C8.64907 13.6106 7.84553 13.7787 7.43749 13.8125C7.0921 13.8411 6.76616 13.6434 6.56748 13.3596C6.36827 13.0758 6.32054 12.7126 6.4388 12.3868L8.04552 7.96876H6.37498C6.37356 7.04816 7.06408 6.37125 7.94726 6.11147C8.36873 5.98747 9.15398 5.81777 9.56248 5.84378C9.80721 5.85934 10.2338 6.01289 10.4325 6.2967C10.6317 6.58048 10.6794 6.94364 10.5612 7.26945L8.95445 11.6875H10.6245C10.6248 12.6071 9.96001 13.3921 9.0529 13.5433ZM9.56248 5.31251C8.97566 5.31251 8.49997 4.83675 8.49997 4.25C8.49997 3.66318 8.97566 3.18749 9.56248 3.18749C10.1493 3.18749 10.625 3.66318 10.625 4.25C10.625 4.83679 10.1493 5.31251 9.56248 5.31251Z" fill="#5F78D3"/>
</svg>
