<svg width="24" height="24" viewBox="0 0 24 24" fill="none" xmlns="http://www.w3.org/2000/svg">
<g clip-path="url(#clip0)">
<path d="M6.5157 20.8321C6.14448 21.4654 6.1647 22.2466 6.80078 22.7165C7.34507 23.1177 8.31395 23.0655 8.68597 22.4318C9.45509 21.12 10.8498 20.1322 10.8498 20.1322C10.8498 20.1322 10.3362 19.0007 10.0932 16.8806C10.0928 16.881 7.39076 19.3388 6.5157 20.8321Z" fill="white"/>
<path d="M17.4867 9.4215C15.9085 8.01671 14.2154 6.75627 12.3625 5.74251C12.1632 5.59168 11.9351 5.4736 11.6945 5.39475C11.5336 5.32964 11.3754 5.2981 11.2234 5.29365C10.969 5.26454 10.7143 5.27748 10.481 5.34016C9.86511 5.50514 9.44941 5.88202 9.21285 6.3616C8.0713 7.69482 7.11779 9.1437 6.26213 10.6747C5.41255 12.1935 7.74093 13.5526 8.58971 12.035C8.85498 11.5598 9.12834 11.0916 9.41383 10.6322C9.66009 12.2917 9.90595 13.9513 10.1514 15.6104C10.2011 15.9469 10.3613 16.2364 10.5849 16.4718C10.9424 18.8341 11.5987 21.1645 12.6335 23.3085C13.3884 24.8734 15.7124 23.5054 14.961 21.9478C14.1879 20.3461 13.6711 18.5729 13.3528 16.7843C14.0524 16.2971 14.3059 15.4196 14.1749 14.5324C13.9315 12.8939 13.6893 11.2545 13.4458 9.6156C14.1826 10.1474 14.8935 10.7175 15.5789 11.3277C16.8757 12.4782 18.7888 10.5788 17.4867 9.4215Z" fill="white"/>
<path d="M11.0207 4.69721C12.3178 4.69721 13.3693 3.6457 13.3693 2.3486C13.3693 1.05151 12.3178 0 11.0207 0C9.72363 0 8.67212 1.05151 8.67212 2.3486C8.67212 3.6457 9.72363 4.69721 11.0207 4.69721Z" fill="white"/>
</g>
<defs>
<clipPath id="clip0">
<rect width="24" height="24" fill="white"/>
</clipPath>
</defs>
</svg>
